<mxfile host="app.diagrams.net" modified="2023-04-30T07:26:14.061Z" agent="Mozilla/5.0 (Macintosh; Intel Mac OS X 10_15_7) AppleWebKit/605.1.15 (KHTML, like Gecko) Version/16.4 Safari/605.1.15" etag="J7BzRuU8THQ-OXd0epoX" version="21.2.3" type="device" pages="5">
  <diagram name="Page-1" id="2YBvvXClWsGukQMizWep">
    <mxGraphModel dx="1095" dy="673" grid="1" gridSize="10" guides="1" tooltips="1" connect="1" arrows="1" fold="1" page="1" pageScale="1" pageWidth="850" pageHeight="1100" math="0" shadow="0">
      <root>
        <mxCell id="0" />
        <mxCell id="1" parent="0" />
        <mxCell id="38OxWL5ROf2kxBMYA7Xg-3" value=":System" style="shape=umlLifeline;perimeter=lifelinePerimeter;whiteSpace=wrap;html=1;container=1;collapsible=0;recursiveResize=0;outlineConnect=0;rounded=1;shadow=0;comic=0;labelBackgroundColor=none;strokeWidth=1;fontFamily=Verdana;fontSize=12;align=center;" parent="1" vertex="1">
          <mxGeometry x="520" y="80" width="100" height="580" as="geometry" />
        </mxCell>
        <mxCell id="38OxWL5ROf2kxBMYA7Xg-4" value="" style="html=1;points=[];perimeter=orthogonalPerimeter;rounded=0;shadow=0;comic=0;labelBackgroundColor=none;strokeWidth=1;fontFamily=Verdana;fontSize=12;align=center;" parent="38OxWL5ROf2kxBMYA7Xg-3" vertex="1">
          <mxGeometry x="45" y="88" width="10" height="80" as="geometry" />
        </mxCell>
        <mxCell id="38OxWL5ROf2kxBMYA7Xg-8" value="" style="html=1;points=[];perimeter=orthogonalPerimeter;rounded=0;shadow=0;comic=0;labelBackgroundColor=none;strokeWidth=1;fontFamily=Verdana;fontSize=12;align=center;" parent="38OxWL5ROf2kxBMYA7Xg-3" vertex="1">
          <mxGeometry x="45" y="249" width="10" height="301" as="geometry" />
        </mxCell>
        <mxCell id="38OxWL5ROf2kxBMYA7Xg-39" value="대화 학습" style="curved=1;endArrow=classic;html=1;rounded=0;entryX=0.98;entryY=0.355;entryDx=0;entryDy=0;entryPerimeter=0;" parent="38OxWL5ROf2kxBMYA7Xg-3" source="38OxWL5ROf2kxBMYA7Xg-4" target="38OxWL5ROf2kxBMYA7Xg-4" edge="1">
          <mxGeometry x="-0.1773" y="20" width="50" height="50" relative="1" as="geometry">
            <mxPoint x="100" y="221" as="sourcePoint" />
            <mxPoint x="150" y="171" as="targetPoint" />
            <Array as="points">
              <mxPoint x="80" y="101" />
              <mxPoint x="80" y="111" />
            </Array>
            <mxPoint as="offset" />
          </mxGeometry>
        </mxCell>
        <mxCell id="38OxWL5ROf2kxBMYA7Xg-47" value="적합도 검토" style="curved=1;endArrow=classic;html=1;rounded=0;entryX=0.98;entryY=0.355;entryDx=0;entryDy=0;entryPerimeter=0;" parent="38OxWL5ROf2kxBMYA7Xg-3" edge="1">
          <mxGeometry x="-0.1735" y="14" width="50" height="50" relative="1" as="geometry">
            <mxPoint x="55" y="349" as="sourcePoint" />
            <mxPoint x="55" y="364" as="targetPoint" />
            <Array as="points">
              <mxPoint x="80" y="349" />
              <mxPoint x="80" y="359" />
            </Array>
            <mxPoint x="-4" y="-10" as="offset" />
          </mxGeometry>
        </mxCell>
        <mxCell id="38OxWL5ROf2kxBMYA7Xg-1" value=":Interface" style="shape=umlLifeline;perimeter=lifelinePerimeter;whiteSpace=wrap;html=1;container=1;collapsible=0;recursiveResize=0;outlineConnect=0;rounded=1;shadow=0;comic=0;labelBackgroundColor=none;strokeWidth=1;fontFamily=Verdana;fontSize=12;align=center;" parent="1" vertex="1">
          <mxGeometry x="360" y="80" width="100" height="580" as="geometry" />
        </mxCell>
        <mxCell id="38OxWL5ROf2kxBMYA7Xg-2" value="" style="html=1;points=[];perimeter=orthogonalPerimeter;rounded=0;shadow=0;comic=0;labelBackgroundColor=none;strokeWidth=1;fontFamily=Verdana;fontSize=12;align=center;" parent="38OxWL5ROf2kxBMYA7Xg-1" vertex="1">
          <mxGeometry x="45" y="242" width="10" height="318" as="geometry" />
        </mxCell>
        <mxCell id="38OxWL5ROf2kxBMYA7Xg-9" value=":Database" style="shape=umlLifeline;perimeter=lifelinePerimeter;whiteSpace=wrap;html=1;container=1;collapsible=0;recursiveResize=0;outlineConnect=0;rounded=1;shadow=0;comic=0;labelBackgroundColor=none;strokeWidth=1;fontFamily=Verdana;fontSize=12;align=center;" parent="1" vertex="1">
          <mxGeometry x="680" y="80" width="100" height="580" as="geometry" />
        </mxCell>
        <mxCell id="38OxWL5ROf2kxBMYA7Xg-18" value="" style="html=1;points=[];perimeter=orthogonalPerimeter;rounded=0;shadow=0;comic=0;labelBackgroundColor=none;strokeWidth=1;fontFamily=Verdana;fontSize=12;align=center;" parent="38OxWL5ROf2kxBMYA7Xg-9" vertex="1">
          <mxGeometry x="45" y="254" width="10" height="236" as="geometry" />
        </mxCell>
        <mxCell id="38OxWL5ROf2kxBMYA7Xg-15" value="" style="html=1;points=[];perimeter=orthogonalPerimeter;rounded=0;shadow=0;comic=0;labelBackgroundColor=none;strokeWidth=1;fontFamily=Verdana;fontSize=12;align=center;" parent="38OxWL5ROf2kxBMYA7Xg-9" vertex="1">
          <mxGeometry x="45" y="132" width="10" height="29" as="geometry" />
        </mxCell>
        <mxCell id="38OxWL5ROf2kxBMYA7Xg-13" value=":User" style="shape=umlLifeline;perimeter=lifelinePerimeter;whiteSpace=wrap;html=1;container=1;collapsible=0;recursiveResize=0;outlineConnect=0;rounded=1;shadow=0;comic=0;labelBackgroundColor=none;strokeWidth=1;fontFamily=Verdana;fontSize=12;align=center;" parent="1" vertex="1">
          <mxGeometry x="200" y="80" width="100" height="580" as="geometry" />
        </mxCell>
        <mxCell id="38OxWL5ROf2kxBMYA7Xg-14" value="" style="html=1;points=[];perimeter=orthogonalPerimeter;rounded=0;shadow=0;comic=0;labelBackgroundColor=none;strokeWidth=1;fontFamily=Verdana;fontSize=12;align=center;" parent="38OxWL5ROf2kxBMYA7Xg-13" vertex="1">
          <mxGeometry x="45" y="239" width="10" height="321" as="geometry" />
        </mxCell>
        <mxCell id="38OxWL5ROf2kxBMYA7Xg-34" value=":Usually" style="shape=umlLifeline;perimeter=lifelinePerimeter;whiteSpace=wrap;html=1;container=1;collapsible=0;recursiveResize=0;outlineConnect=0;rounded=1;shadow=0;comic=0;labelBackgroundColor=none;strokeWidth=1;fontFamily=Verdana;fontSize=12;align=center;" parent="1" vertex="1">
          <mxGeometry x="40" y="80" width="100" height="580" as="geometry" />
        </mxCell>
        <mxCell id="38OxWL5ROf2kxBMYA7Xg-35" value="" style="html=1;points=[];perimeter=orthogonalPerimeter;rounded=0;shadow=0;comic=0;labelBackgroundColor=none;strokeWidth=1;fontFamily=Verdana;fontSize=12;align=center;" parent="38OxWL5ROf2kxBMYA7Xg-34" vertex="1">
          <mxGeometry x="45" y="50" width="10" height="520" as="geometry" />
        </mxCell>
        <mxCell id="38OxWL5ROf2kxBMYA7Xg-36" value="대화 습득" style="endArrow=classic;html=1;rounded=0;exitX=0.94;exitY=0.019;exitDx=0;exitDy=0;exitPerimeter=0;" parent="1" target="38OxWL5ROf2kxBMYA7Xg-4" edge="1">
          <mxGeometry x="-0.0013" y="12" width="50" height="50" relative="1" as="geometry">
            <mxPoint x="94.39999999999986" y="172.8800000000001" as="sourcePoint" />
            <mxPoint x="555" y="173.68000000000006" as="targetPoint" />
            <mxPoint as="offset" />
          </mxGeometry>
        </mxCell>
        <mxCell id="38OxWL5ROf2kxBMYA7Xg-37" value="대화 기록" style="endArrow=classic;html=1;rounded=0;" parent="1" source="38OxWL5ROf2kxBMYA7Xg-4" edge="1">
          <mxGeometry x="-0.0057" y="12" width="50" height="50" relative="1" as="geometry">
            <mxPoint x="565" y="220" as="sourcePoint" />
            <mxPoint x="725" y="220" as="targetPoint" />
            <mxPoint as="offset" />
          </mxGeometry>
        </mxCell>
        <mxCell id="38OxWL5ROf2kxBMYA7Xg-40" value="기능 사용" style="endArrow=classic;html=1;rounded=0;exitX=1.019;exitY=0.057;exitDx=0;exitDy=0;exitPerimeter=0;" parent="1" edge="1">
          <mxGeometry x="-0.0013" y="9" width="50" height="50" relative="1" as="geometry">
            <mxPoint x="255.18999999999983" y="328.69999999999993" as="sourcePoint" />
            <mxPoint x="405" y="328.69999999999993" as="targetPoint" />
            <mxPoint as="offset" />
          </mxGeometry>
        </mxCell>
        <mxCell id="38OxWL5ROf2kxBMYA7Xg-41" value="대화 요구" style="endArrow=classic;html=1;rounded=0;exitX=0.992;exitY=0.097;exitDx=0;exitDy=0;exitPerimeter=0;" parent="1" target="38OxWL5ROf2kxBMYA7Xg-8" edge="1">
          <mxGeometry x="-0.0137" y="8" width="50" height="50" relative="1" as="geometry">
            <mxPoint x="414.9200000000001" y="336.2800000000001" as="sourcePoint" />
            <mxPoint x="555" y="336.2800000000001" as="targetPoint" />
            <mxPoint as="offset" />
          </mxGeometry>
        </mxCell>
        <mxCell id="38OxWL5ROf2kxBMYA7Xg-43" value="대화 불러오기" style="endArrow=classic;html=1;rounded=0;entryX=-0.022;entryY=0.156;entryDx=0;entryDy=0;entryPerimeter=0;" parent="1" source="38OxWL5ROf2kxBMYA7Xg-8" edge="1">
          <mxGeometry x="-0.0115" y="9" width="50" height="50" relative="1" as="geometry">
            <mxPoint x="565.0500000000002" y="344.81500000000005" as="sourcePoint" />
            <mxPoint x="724.7800000000002" y="344.8399999999999" as="targetPoint" />
            <mxPoint as="offset" />
          </mxGeometry>
        </mxCell>
        <mxCell id="38OxWL5ROf2kxBMYA7Xg-44" value="대화 데이터 제공" style="endArrow=classic;html=1;rounded=0;" parent="1" edge="1">
          <mxGeometry x="0.0125" y="-7" width="50" height="50" relative="1" as="geometry">
            <mxPoint x="725" y="401.41999999999985" as="sourcePoint" />
            <mxPoint x="575" y="401.41999999999985" as="targetPoint" />
            <mxPoint as="offset" />
          </mxGeometry>
        </mxCell>
        <mxCell id="38OxWL5ROf2kxBMYA7Xg-45" value="적합한 대화 추천" style="endArrow=classic;html=1;rounded=0;" parent="1" edge="1">
          <mxGeometry y="-8" width="50" height="50" relative="1" as="geometry">
            <mxPoint x="565" y="598" as="sourcePoint" />
            <mxPoint x="415" y="597.9999999999999" as="targetPoint" />
            <mxPoint as="offset" />
          </mxGeometry>
        </mxCell>
        <mxCell id="38OxWL5ROf2kxBMYA7Xg-48" value="" style="rounded=0;whiteSpace=wrap;html=1;fillColor=none;" parent="1" vertex="1">
          <mxGeometry x="150" y="470" width="610" height="110" as="geometry" />
        </mxCell>
        <mxCell id="38OxWL5ROf2kxBMYA7Xg-49" value="적합하지 않음" style="text;html=1;strokeColor=default;fillColor=none;align=left;verticalAlign=middle;whiteSpace=wrap;rounded=0;" parent="1" vertex="1">
          <mxGeometry x="150" y="470" width="70" height="20" as="geometry" />
        </mxCell>
        <mxCell id="38OxWL5ROf2kxBMYA7Xg-50" value="" style="rounded=0;whiteSpace=wrap;html=1;fillColor=none;" parent="1" vertex="1">
          <mxGeometry x="150" y="580" width="610" height="70" as="geometry" />
        </mxCell>
        <mxCell id="38OxWL5ROf2kxBMYA7Xg-51" value="적합함" style="text;html=1;strokeColor=default;fillColor=none;align=left;verticalAlign=middle;whiteSpace=wrap;rounded=0;" parent="1" vertex="1">
          <mxGeometry x="150" y="580" width="70" height="20" as="geometry" />
        </mxCell>
        <mxCell id="38OxWL5ROf2kxBMYA7Xg-52" value="다른 대화 불러오기" style="endArrow=classic;html=1;rounded=0;" parent="1" edge="1">
          <mxGeometry y="9" width="50" height="50" relative="1" as="geometry">
            <mxPoint x="575" y="495.5" as="sourcePoint" />
            <mxPoint x="725" y="495.5" as="targetPoint" />
            <mxPoint as="offset" />
          </mxGeometry>
        </mxCell>
        <mxCell id="38OxWL5ROf2kxBMYA7Xg-53" value="적합도 검토" style="curved=1;endArrow=classic;html=1;rounded=0;entryX=0.98;entryY=0.355;entryDx=0;entryDy=0;entryPerimeter=0;" parent="1" edge="1">
          <mxGeometry x="-0.1735" y="14" width="50" height="50" relative="1" as="geometry">
            <mxPoint x="575" y="554" as="sourcePoint" />
            <mxPoint x="575" y="569" as="targetPoint" />
            <Array as="points">
              <mxPoint x="600" y="554" />
              <mxPoint x="600" y="564" />
            </Array>
            <mxPoint x="-4" y="-10" as="offset" />
          </mxGeometry>
        </mxCell>
        <mxCell id="38OxWL5ROf2kxBMYA7Xg-54" value="대화 데이터 제공" style="endArrow=classic;html=1;rounded=0;" parent="1" edge="1">
          <mxGeometry x="0.0116" y="-7" width="50" height="50" relative="1" as="geometry">
            <mxPoint x="725" y="526.4199999999998" as="sourcePoint" />
            <mxPoint x="575" y="526.4199999999998" as="targetPoint" />
            <mxPoint as="offset" />
          </mxGeometry>
        </mxCell>
        <mxCell id="38OxWL5ROf2kxBMYA7Xg-55" value="대화 선택" style="endArrow=classic;html=1;rounded=0;" parent="1" edge="1">
          <mxGeometry y="8" width="50" height="50" relative="1" as="geometry">
            <mxPoint x="255" y="611.5" as="sourcePoint" />
            <mxPoint x="405" y="611.5" as="targetPoint" />
            <mxPoint as="offset" />
          </mxGeometry>
        </mxCell>
      </root>
    </mxGraphModel>
  </diagram>
  <diagram id="4nDI2JjXKIKIOmapHrG6" name="회원가입">
    <mxGraphModel dx="906" dy="557" grid="1" gridSize="10" guides="1" tooltips="1" connect="1" arrows="1" fold="1" page="1" pageScale="1" pageWidth="827" pageHeight="1169" math="0" shadow="0">
      <root>
        <mxCell id="0" />
        <mxCell id="1" parent="0" />
        <mxCell id="L_VCOHzm4TfF7jXhR2XW-10" value="" style="whiteSpace=wrap;html=1;fillColor=none;" vertex="1" parent="1">
          <mxGeometry x="80" y="260" width="620" height="80" as="geometry" />
        </mxCell>
        <mxCell id="L_VCOHzm4TfF7jXhR2XW-12" value="부적합" style="html=1;whiteSpace=wrap;" vertex="1" parent="1">
          <mxGeometry x="80" y="260" width="60" height="20" as="geometry" />
        </mxCell>
        <mxCell id="L_VCOHzm4TfF7jXhR2XW-13" value="" style="whiteSpace=wrap;html=1;fillColor=none;" vertex="1" parent="1">
          <mxGeometry x="80" y="340" width="620" height="100" as="geometry" />
        </mxCell>
        <mxCell id="L_VCOHzm4TfF7jXhR2XW-14" value="적합" style="html=1;whiteSpace=wrap;" vertex="1" parent="1">
          <mxGeometry x="80" y="340" width="60" height="20" as="geometry" />
        </mxCell>
        <mxCell id="ydtItATLByN75mZN5U4C-1" value=":System" style="shape=umlLifeline;perimeter=lifelinePerimeter;whiteSpace=wrap;html=1;container=1;collapsible=0;recursiveResize=0;outlineConnect=0;rounded=1;shadow=0;comic=0;labelBackgroundColor=none;strokeWidth=1;fontFamily=Verdana;fontSize=12;align=center;" vertex="1" parent="1">
          <mxGeometry x="360" y="100" width="110" height="360" as="geometry" />
        </mxCell>
        <mxCell id="ydtItATLByN75mZN5U4C-2" value="" style="html=1;points=[];perimeter=orthogonalPerimeter;rounded=0;shadow=0;comic=0;labelBackgroundColor=none;strokeWidth=1;fontFamily=Verdana;fontSize=12;align=center;" vertex="1" parent="ydtItATLByN75mZN5U4C-1">
          <mxGeometry x="50" y="88" width="10" height="262" as="geometry" />
        </mxCell>
        <mxCell id="L_VCOHzm4TfF7jXhR2XW-8" value="" style="curved=1;endArrow=classic;html=1;rounded=0;entryX=1.067;entryY=0.133;entryDx=0;entryDy=0;entryPerimeter=0;exitX=1.033;exitY=0.065;exitDx=0;exitDy=0;exitPerimeter=0;" edge="1" parent="ydtItATLByN75mZN5U4C-1" source="ydtItATLByN75mZN5U4C-2" target="L_VCOHzm4TfF7jXhR2XW-20">
          <mxGeometry width="50" height="50" relative="1" as="geometry">
            <mxPoint x="55" y="109" as="sourcePoint" />
            <mxPoint x="57.809999999999945" y="124.25" as="targetPoint" />
            <Array as="points">
              <mxPoint x="80" y="104" />
              <mxPoint x="80" y="124" />
            </Array>
          </mxGeometry>
        </mxCell>
        <mxCell id="L_VCOHzm4TfF7jXhR2XW-20" value="" style="whiteSpace=wrap;html=1;" vertex="1" parent="ydtItATLByN75mZN5U4C-1">
          <mxGeometry x="55" y="119" width="10" height="30" as="geometry" />
        </mxCell>
        <mxCell id="L_VCOHzm4TfF7jXhR2XW-9" value="검토" style="text;html=1;align=center;verticalAlign=middle;resizable=0;points=[];autosize=1;strokeColor=none;fillColor=none;" vertex="1" parent="ydtItATLByN75mZN5U4C-1">
          <mxGeometry x="70" y="88" width="40" height="30" as="geometry" />
        </mxCell>
        <mxCell id="ydtItATLByN75mZN5U4C-8" value=":Database" style="shape=umlLifeline;perimeter=lifelinePerimeter;whiteSpace=wrap;html=1;container=1;collapsible=0;recursiveResize=0;outlineConnect=0;rounded=1;shadow=0;comic=0;labelBackgroundColor=none;strokeWidth=1;fontFamily=Verdana;fontSize=12;align=center;" vertex="1" parent="1">
          <mxGeometry x="590" y="100" width="100" height="360" as="geometry" />
        </mxCell>
        <mxCell id="ydtItATLByN75mZN5U4C-10" value="" style="html=1;points=[];perimeter=orthogonalPerimeter;rounded=0;shadow=0;comic=0;labelBackgroundColor=none;strokeWidth=1;fontFamily=Verdana;fontSize=12;align=center;" vertex="1" parent="ydtItATLByN75mZN5U4C-8">
          <mxGeometry x="45" y="256" width="10" height="48" as="geometry" />
        </mxCell>
        <mxCell id="ydtItATLByN75mZN5U4C-11" value=":User" style="shape=umlLifeline;perimeter=lifelinePerimeter;whiteSpace=wrap;html=1;container=1;collapsible=0;recursiveResize=0;outlineConnect=0;rounded=1;shadow=0;comic=0;labelBackgroundColor=none;strokeWidth=1;fontFamily=Verdana;fontSize=12;align=center;" vertex="1" parent="1">
          <mxGeometry x="130" y="100" width="100" height="360" as="geometry" />
        </mxCell>
        <mxCell id="L_VCOHzm4TfF7jXhR2XW-1" value="" style="html=1;points=[];perimeter=orthogonalPerimeter;outlineConnect=0;targetShapes=umlLifeline;portConstraint=eastwest;newEdgeStyle={&quot;edgeStyle&quot;:&quot;elbowEdgeStyle&quot;,&quot;elbow&quot;:&quot;vertical&quot;,&quot;curved&quot;:0,&quot;rounded&quot;:0};" vertex="1" parent="ydtItATLByN75mZN5U4C-11">
          <mxGeometry x="45" y="81" width="10" height="269" as="geometry" />
        </mxCell>
        <mxCell id="L_VCOHzm4TfF7jXhR2XW-17" value="" style="curved=1;endArrow=classic;html=1;rounded=0;" edge="1" parent="ydtItATLByN75mZN5U4C-11">
          <mxGeometry width="50" height="50" relative="1" as="geometry">
            <mxPoint x="45" y="206" as="sourcePoint" />
            <mxPoint x="45" y="90" as="targetPoint" />
            <Array as="points">
              <mxPoint x="20" y="210" />
              <mxPoint x="20" y="90" />
            </Array>
          </mxGeometry>
        </mxCell>
        <mxCell id="L_VCOHzm4TfF7jXhR2XW-4" value="개인정보 입력" style="html=1;verticalAlign=bottom;endArrow=block;edgeStyle=elbowEdgeStyle;elbow=vertical;curved=0;rounded=0;" edge="1" parent="1" source="L_VCOHzm4TfF7jXhR2XW-1" target="ydtItATLByN75mZN5U4C-2">
          <mxGeometry x="0.0222" width="80" relative="1" as="geometry">
            <mxPoint x="270" y="240" as="sourcePoint" />
            <mxPoint x="350" y="240" as="targetPoint" />
            <Array as="points">
              <mxPoint x="310" y="200" />
            </Array>
            <mxPoint as="offset" />
          </mxGeometry>
        </mxCell>
        <mxCell id="L_VCOHzm4TfF7jXhR2XW-15" value="개인정보 재요청" style="edgeStyle=none;orthogonalLoop=1;jettySize=auto;html=1;rounded=0;" edge="1" parent="1" source="ydtItATLByN75mZN5U4C-2">
          <mxGeometry x="-0.0455" y="-8" width="100" relative="1" as="geometry">
            <mxPoint x="405" y="288" as="sourcePoint" />
            <mxPoint x="185" y="288" as="targetPoint" />
            <Array as="points" />
            <mxPoint as="offset" />
          </mxGeometry>
        </mxCell>
        <mxCell id="L_VCOHzm4TfF7jXhR2XW-18" value="" style="edgeStyle=none;orthogonalLoop=1;jettySize=auto;html=1;rounded=0;" edge="1" parent="1" source="ydtItATLByN75mZN5U4C-2">
          <mxGeometry width="100" relative="1" as="geometry">
            <mxPoint x="415" y="364" as="sourcePoint" />
            <mxPoint x="635" y="364" as="targetPoint" />
            <Array as="points" />
          </mxGeometry>
        </mxCell>
        <mxCell id="L_VCOHzm4TfF7jXhR2XW-19" value="개인정보 저장" style="edgeLabel;html=1;align=center;verticalAlign=middle;resizable=0;points=[];" vertex="1" connectable="0" parent="L_VCOHzm4TfF7jXhR2XW-18">
          <mxGeometry x="0.0558" y="1" relative="1" as="geometry">
            <mxPoint y="-9" as="offset" />
          </mxGeometry>
        </mxCell>
        <mxCell id="L_VCOHzm4TfF7jXhR2XW-21" value="저장 완료 알림" style="edgeStyle=none;orthogonalLoop=1;jettySize=auto;html=1;rounded=0;dashed=1;verticalAlign=bottom;" edge="1" parent="1" target="ydtItATLByN75mZN5U4C-2">
          <mxGeometry x="-0.0455" width="100" relative="1" as="geometry">
            <mxPoint x="635" y="394" as="sourcePoint" />
            <mxPoint x="415" y="394" as="targetPoint" />
            <Array as="points" />
            <mxPoint as="offset" />
          </mxGeometry>
        </mxCell>
        <mxCell id="L_VCOHzm4TfF7jXhR2XW-22" value="회원가입 완료" style="edgeStyle=none;orthogonalLoop=1;jettySize=auto;html=1;rounded=0;dashed=1;verticalAlign=bottom;" edge="1" parent="1">
          <mxGeometry x="-0.0451" width="100" relative="1" as="geometry">
            <mxPoint x="410" y="410" as="sourcePoint" />
            <mxPoint x="185" y="410" as="targetPoint" />
            <Array as="points" />
            <mxPoint as="offset" />
          </mxGeometry>
        </mxCell>
      </root>
    </mxGraphModel>
  </diagram>
  <diagram name="로그인" id="4Rds9qaqk0F1mdAT4Lcm">
    <mxGraphModel dx="1095" dy="673" grid="1" gridSize="10" guides="1" tooltips="1" connect="1" arrows="1" fold="1" page="1" pageScale="1" pageWidth="827" pageHeight="1169" math="0" shadow="0">
      <root>
        <mxCell id="PhwzmxqaHd6laTKNhyzX-0" />
        <mxCell id="PhwzmxqaHd6laTKNhyzX-1" parent="PhwzmxqaHd6laTKNhyzX-0" />
        <mxCell id="PhwzmxqaHd6laTKNhyzX-2" value="" style="whiteSpace=wrap;html=1;fillColor=none;" vertex="1" parent="PhwzmxqaHd6laTKNhyzX-1">
          <mxGeometry x="80" y="290" width="620" height="50" as="geometry" />
        </mxCell>
        <mxCell id="PhwzmxqaHd6laTKNhyzX-3" value="부적합" style="html=1;whiteSpace=wrap;" vertex="1" parent="PhwzmxqaHd6laTKNhyzX-1">
          <mxGeometry x="80" y="290" width="60" height="20" as="geometry" />
        </mxCell>
        <mxCell id="PhwzmxqaHd6laTKNhyzX-4" value="" style="whiteSpace=wrap;html=1;fillColor=none;" vertex="1" parent="PhwzmxqaHd6laTKNhyzX-1">
          <mxGeometry x="80" y="340" width="620" height="50" as="geometry" />
        </mxCell>
        <mxCell id="PhwzmxqaHd6laTKNhyzX-5" value="적합" style="html=1;whiteSpace=wrap;" vertex="1" parent="PhwzmxqaHd6laTKNhyzX-1">
          <mxGeometry x="80" y="340" width="60" height="20" as="geometry" />
        </mxCell>
        <mxCell id="PhwzmxqaHd6laTKNhyzX-6" value=":System" style="shape=umlLifeline;perimeter=lifelinePerimeter;whiteSpace=wrap;html=1;container=1;collapsible=0;recursiveResize=0;outlineConnect=0;rounded=1;shadow=0;comic=0;labelBackgroundColor=none;strokeWidth=1;fontFamily=Verdana;fontSize=12;align=center;" vertex="1" parent="PhwzmxqaHd6laTKNhyzX-1">
          <mxGeometry x="360" y="100" width="110" height="310" as="geometry" />
        </mxCell>
        <mxCell id="PhwzmxqaHd6laTKNhyzX-7" value="" style="html=1;points=[];perimeter=orthogonalPerimeter;rounded=0;shadow=0;comic=0;labelBackgroundColor=none;strokeWidth=1;fontFamily=Verdana;fontSize=12;align=center;" vertex="1" parent="PhwzmxqaHd6laTKNhyzX-6">
          <mxGeometry x="50" y="50" width="10" height="250" as="geometry" />
        </mxCell>
        <mxCell id="PhwzmxqaHd6laTKNhyzX-8" value="" style="curved=1;endArrow=classic;html=1;rounded=0;entryX=1.067;entryY=0.133;entryDx=0;entryDy=0;entryPerimeter=0;exitX=1.033;exitY=0.065;exitDx=0;exitDy=0;exitPerimeter=0;" edge="1" parent="PhwzmxqaHd6laTKNhyzX-6" target="PhwzmxqaHd6laTKNhyzX-9">
          <mxGeometry width="50" height="50" relative="1" as="geometry">
            <mxPoint x="60.32999999999993" y="140.02999999999997" as="sourcePoint" />
            <mxPoint x="57.809999999999945" y="159.25" as="targetPoint" />
            <Array as="points">
              <mxPoint x="80" y="139" />
              <mxPoint x="80" y="159" />
            </Array>
          </mxGeometry>
        </mxCell>
        <mxCell id="PhwzmxqaHd6laTKNhyzX-9" value="" style="whiteSpace=wrap;html=1;" vertex="1" parent="PhwzmxqaHd6laTKNhyzX-6">
          <mxGeometry x="55" y="154" width="10" height="30" as="geometry" />
        </mxCell>
        <mxCell id="PhwzmxqaHd6laTKNhyzX-10" value="검토" style="text;html=1;align=center;verticalAlign=middle;resizable=0;points=[];autosize=1;strokeColor=none;fillColor=none;" vertex="1" parent="PhwzmxqaHd6laTKNhyzX-6">
          <mxGeometry x="70" y="123" width="40" height="30" as="geometry" />
        </mxCell>
        <mxCell id="PhwzmxqaHd6laTKNhyzX-11" value=":Database" style="shape=umlLifeline;perimeter=lifelinePerimeter;whiteSpace=wrap;html=1;container=1;collapsible=0;recursiveResize=0;outlineConnect=0;rounded=1;shadow=0;comic=0;labelBackgroundColor=none;strokeWidth=1;fontFamily=Verdana;fontSize=12;align=center;" vertex="1" parent="PhwzmxqaHd6laTKNhyzX-1">
          <mxGeometry x="590" y="100" width="100" height="310" as="geometry" />
        </mxCell>
        <mxCell id="PhwzmxqaHd6laTKNhyzX-12" value="" style="html=1;points=[];perimeter=orthogonalPerimeter;rounded=0;shadow=0;comic=0;labelBackgroundColor=none;strokeWidth=1;fontFamily=Verdana;fontSize=12;align=center;" vertex="1" parent="PhwzmxqaHd6laTKNhyzX-11">
          <mxGeometry x="45" y="73" width="10" height="48" as="geometry" />
        </mxCell>
        <mxCell id="PhwzmxqaHd6laTKNhyzX-13" value=":User" style="shape=umlLifeline;perimeter=lifelinePerimeter;whiteSpace=wrap;html=1;container=1;collapsible=0;recursiveResize=0;outlineConnect=0;rounded=1;shadow=0;comic=0;labelBackgroundColor=none;strokeWidth=1;fontFamily=Verdana;fontSize=12;align=center;" vertex="1" parent="PhwzmxqaHd6laTKNhyzX-1">
          <mxGeometry x="130" y="100" width="100" height="310" as="geometry" />
        </mxCell>
        <mxCell id="PhwzmxqaHd6laTKNhyzX-14" value="" style="html=1;points=[];perimeter=orthogonalPerimeter;outlineConnect=0;targetShapes=umlLifeline;portConstraint=eastwest;newEdgeStyle={&quot;edgeStyle&quot;:&quot;elbowEdgeStyle&quot;,&quot;elbow&quot;:&quot;vertical&quot;,&quot;curved&quot;:0,&quot;rounded&quot;:0};" vertex="1" parent="PhwzmxqaHd6laTKNhyzX-13">
          <mxGeometry x="45" y="50" width="10" height="250" as="geometry" />
        </mxCell>
        <mxCell id="PhwzmxqaHd6laTKNhyzX-15" value="" style="curved=1;endArrow=classic;html=1;rounded=0;" edge="1" parent="PhwzmxqaHd6laTKNhyzX-13" source="PhwzmxqaHd6laTKNhyzX-14">
          <mxGeometry width="50" height="50" relative="1" as="geometry">
            <mxPoint x="45" y="179" as="sourcePoint" />
            <mxPoint x="45" y="63" as="targetPoint" />
            <Array as="points">
              <mxPoint x="20" y="220" />
              <mxPoint x="20" y="63" />
            </Array>
          </mxGeometry>
        </mxCell>
        <mxCell id="PhwzmxqaHd6laTKNhyzX-16" value="로그인 정보 입력" style="html=1;verticalAlign=bottom;endArrow=block;edgeStyle=elbowEdgeStyle;elbow=vertical;curved=0;rounded=0;" edge="1" parent="PhwzmxqaHd6laTKNhyzX-1">
          <mxGeometry x="0.021" width="80" relative="1" as="geometry">
            <mxPoint x="185" y="170" as="sourcePoint" />
            <mxPoint x="410" y="170" as="targetPoint" />
            <Array as="points">
              <mxPoint x="310" y="170" />
            </Array>
            <mxPoint as="offset" />
          </mxGeometry>
        </mxCell>
        <mxCell id="PhwzmxqaHd6laTKNhyzX-17" value="로그인 정보 입력 재요청" style="edgeStyle=none;orthogonalLoop=1;jettySize=auto;html=1;rounded=0;" edge="1" parent="PhwzmxqaHd6laTKNhyzX-1">
          <mxGeometry x="-0.0451" y="-8" width="100" relative="1" as="geometry">
            <mxPoint x="410" y="311" as="sourcePoint" />
            <mxPoint x="185" y="311" as="targetPoint" />
            <Array as="points" />
            <mxPoint as="offset" />
          </mxGeometry>
        </mxCell>
        <mxCell id="PhwzmxqaHd6laTKNhyzX-18" value="" style="edgeStyle=none;orthogonalLoop=1;jettySize=auto;html=1;rounded=0;" edge="1" parent="PhwzmxqaHd6laTKNhyzX-1">
          <mxGeometry width="100" relative="1" as="geometry">
            <mxPoint x="420" y="184" as="sourcePoint" />
            <mxPoint x="635" y="184" as="targetPoint" />
            <Array as="points" />
          </mxGeometry>
        </mxCell>
        <mxCell id="PhwzmxqaHd6laTKNhyzX-19" value="회원 정보 요청" style="edgeLabel;html=1;align=center;verticalAlign=middle;resizable=0;points=[];" vertex="1" connectable="0" parent="PhwzmxqaHd6laTKNhyzX-18">
          <mxGeometry x="0.0558" y="1" relative="1" as="geometry">
            <mxPoint y="-9" as="offset" />
          </mxGeometry>
        </mxCell>
        <mxCell id="PhwzmxqaHd6laTKNhyzX-20" value="회원 정보 반환" style="edgeStyle=none;orthogonalLoop=1;jettySize=auto;html=1;rounded=0;dashed=1;verticalAlign=bottom;" edge="1" parent="PhwzmxqaHd6laTKNhyzX-1">
          <mxGeometry x="-0.0455" width="100" relative="1" as="geometry">
            <mxPoint x="635" y="214" as="sourcePoint" />
            <mxPoint x="420" y="214" as="targetPoint" />
            <Array as="points" />
            <mxPoint as="offset" />
          </mxGeometry>
        </mxCell>
        <mxCell id="PhwzmxqaHd6laTKNhyzX-21" value="로그인&amp;nbsp;완료" style="edgeStyle=none;orthogonalLoop=1;jettySize=auto;html=1;rounded=0;dashed=1;verticalAlign=bottom;" edge="1" parent="PhwzmxqaHd6laTKNhyzX-1">
          <mxGeometry x="-0.0451" width="100" relative="1" as="geometry">
            <mxPoint x="410" y="370" as="sourcePoint" />
            <mxPoint x="185" y="370" as="targetPoint" />
            <Array as="points" />
            <mxPoint as="offset" />
          </mxGeometry>
        </mxCell>
      </root>
    </mxGraphModel>
  </diagram>
  <diagram name="추천 문장 선택" id="JpXNcT4xlM54eQMZWwgD">
    <mxGraphModel dx="906" dy="557" grid="1" gridSize="10" guides="1" tooltips="1" connect="1" arrows="1" fold="1" page="1" pageScale="1" pageWidth="827" pageHeight="1169" math="0" shadow="0">
      <root>
        <mxCell id="qi0_s2SgOBojyVAlAetw-0" />
        <mxCell id="qi0_s2SgOBojyVAlAetw-1" parent="qi0_s2SgOBojyVAlAetw-0" />
        <mxCell id="qi0_s2SgOBojyVAlAetw-2" value="" style="whiteSpace=wrap;html=1;fillColor=none;" vertex="1" parent="qi0_s2SgOBojyVAlAetw-1">
          <mxGeometry x="80" y="170" width="620" height="140" as="geometry" />
        </mxCell>
        <mxCell id="qi0_s2SgOBojyVAlAetw-3" value="평상시" style="html=1;whiteSpace=wrap;" vertex="1" parent="qi0_s2SgOBojyVAlAetw-1">
          <mxGeometry x="80" y="170" width="60" height="20" as="geometry" />
        </mxCell>
        <mxCell id="qi0_s2SgOBojyVAlAetw-4" value="" style="whiteSpace=wrap;html=1;fillColor=none;" vertex="1" parent="qi0_s2SgOBojyVAlAetw-1">
          <mxGeometry x="80" y="310" width="620" height="120" as="geometry" />
        </mxCell>
        <mxCell id="qi0_s2SgOBojyVAlAetw-5" value="추천 문장&lt;br&gt;요청시" style="html=1;whiteSpace=wrap;" vertex="1" parent="qi0_s2SgOBojyVAlAetw-1">
          <mxGeometry x="80" y="310" width="60" height="30" as="geometry" />
        </mxCell>
        <mxCell id="qi0_s2SgOBojyVAlAetw-6" value=":System" style="shape=umlLifeline;perimeter=lifelinePerimeter;whiteSpace=wrap;html=1;container=1;collapsible=0;recursiveResize=0;outlineConnect=0;rounded=1;shadow=0;comic=0;labelBackgroundColor=none;strokeWidth=1;fontFamily=Verdana;fontSize=12;align=center;" vertex="1" parent="qi0_s2SgOBojyVAlAetw-1">
          <mxGeometry x="280" y="100" width="110" height="350" as="geometry" />
        </mxCell>
        <mxCell id="qi0_s2SgOBojyVAlAetw-7" value="" style="html=1;points=[];perimeter=orthogonalPerimeter;rounded=0;shadow=0;comic=0;labelBackgroundColor=none;strokeWidth=1;fontFamily=Verdana;fontSize=12;align=center;" vertex="1" parent="qi0_s2SgOBojyVAlAetw-6">
          <mxGeometry x="50" y="50" width="10" height="150" as="geometry" />
        </mxCell>
        <mxCell id="qi0_s2SgOBojyVAlAetw-8" value="" style="curved=1;endArrow=classic;html=1;rounded=0;entryX=1.067;entryY=0.133;entryDx=0;entryDy=0;entryPerimeter=0;exitX=1.033;exitY=0.065;exitDx=0;exitDy=0;exitPerimeter=0;" edge="1" parent="qi0_s2SgOBojyVAlAetw-6" target="qi0_s2SgOBojyVAlAetw-9">
          <mxGeometry width="50" height="50" relative="1" as="geometry">
            <mxPoint x="60.32999999999993" y="142.02999999999997" as="sourcePoint" />
            <mxPoint x="57.809999999999945" y="161.25" as="targetPoint" />
            <Array as="points">
              <mxPoint x="80" y="141" />
              <mxPoint x="80" y="161" />
            </Array>
          </mxGeometry>
        </mxCell>
        <mxCell id="qi0_s2SgOBojyVAlAetw-9" value="" style="whiteSpace=wrap;html=1;" vertex="1" parent="qi0_s2SgOBojyVAlAetw-6">
          <mxGeometry x="55" y="156" width="10" height="30" as="geometry" />
        </mxCell>
        <mxCell id="qi0_s2SgOBojyVAlAetw-10" value="분석" style="text;html=1;align=center;verticalAlign=middle;resizable=0;points=[];autosize=1;strokeColor=none;fillColor=none;" vertex="1" parent="qi0_s2SgOBojyVAlAetw-6">
          <mxGeometry x="70" y="125" width="40" height="30" as="geometry" />
        </mxCell>
        <mxCell id="f9JuCDkdHwHQhLdcMdZG-0" value="" style="curved=1;endArrow=classic;html=1;rounded=0;exitX=0;exitY=0.75;exitDx=0;exitDy=0;entryX=-0.029;entryY=0.196;entryDx=0;entryDy=0;entryPerimeter=0;" edge="1" parent="qi0_s2SgOBojyVAlAetw-6" source="qi0_s2SgOBojyVAlAetw-9" target="qi0_s2SgOBojyVAlAetw-7">
          <mxGeometry width="50" height="50" relative="1" as="geometry">
            <mxPoint x="70.32999999999993" y="152.02999999999997" as="sourcePoint" />
            <mxPoint x="50" y="134" as="targetPoint" />
            <Array as="points">
              <mxPoint x="30" y="179" />
              <mxPoint x="30" y="79" />
            </Array>
          </mxGeometry>
        </mxCell>
        <mxCell id="WOdpNa8q6JbNw8__8Q4p-3" value="" style="whiteSpace=wrap;html=1;" vertex="1" parent="qi0_s2SgOBojyVAlAetw-6">
          <mxGeometry x="50" y="220" width="10" height="120" as="geometry" />
        </mxCell>
        <mxCell id="qi0_s2SgOBojyVAlAetw-11" value=":Database" style="shape=umlLifeline;perimeter=lifelinePerimeter;whiteSpace=wrap;html=1;container=1;collapsible=0;recursiveResize=0;outlineConnect=0;rounded=1;shadow=0;comic=0;labelBackgroundColor=none;strokeWidth=1;fontFamily=Verdana;fontSize=12;align=center;" vertex="1" parent="qi0_s2SgOBojyVAlAetw-1">
          <mxGeometry x="590" y="100" width="100" height="350" as="geometry" />
        </mxCell>
        <mxCell id="qi0_s2SgOBojyVAlAetw-12" value="" style="html=1;points=[];perimeter=orthogonalPerimeter;rounded=0;shadow=0;comic=0;labelBackgroundColor=none;strokeWidth=1;fontFamily=Verdana;fontSize=12;align=center;" vertex="1" parent="qi0_s2SgOBojyVAlAetw-11">
          <mxGeometry x="45" y="167" width="10" height="21" as="geometry" />
        </mxCell>
        <mxCell id="WOdpNa8q6JbNw8__8Q4p-4" value="" style="whiteSpace=wrap;html=1;" vertex="1" parent="qi0_s2SgOBojyVAlAetw-11">
          <mxGeometry x="45" y="230" width="10" height="60" as="geometry" />
        </mxCell>
        <mxCell id="qi0_s2SgOBojyVAlAetw-13" value=":User" style="shape=umlLifeline;perimeter=lifelinePerimeter;whiteSpace=wrap;html=1;container=1;collapsible=0;recursiveResize=0;outlineConnect=0;rounded=1;shadow=0;comic=0;labelBackgroundColor=none;strokeWidth=1;fontFamily=Verdana;fontSize=12;align=center;" vertex="1" parent="qi0_s2SgOBojyVAlAetw-1">
          <mxGeometry x="130" y="100" width="100" height="350" as="geometry" />
        </mxCell>
        <mxCell id="qi0_s2SgOBojyVAlAetw-14" value="" style="html=1;points=[];perimeter=orthogonalPerimeter;outlineConnect=0;targetShapes=umlLifeline;portConstraint=eastwest;newEdgeStyle={&quot;edgeStyle&quot;:&quot;elbowEdgeStyle&quot;,&quot;elbow&quot;:&quot;vertical&quot;,&quot;curved&quot;:0,&quot;rounded&quot;:0};" vertex="1" parent="qi0_s2SgOBojyVAlAetw-13">
          <mxGeometry x="45" y="220" width="10" height="120" as="geometry" />
        </mxCell>
        <mxCell id="f9JuCDkdHwHQhLdcMdZG-3" value=":Message" style="shape=umlLifeline;perimeter=lifelinePerimeter;whiteSpace=wrap;html=1;container=1;collapsible=0;recursiveResize=0;outlineConnect=0;rounded=1;shadow=0;comic=0;labelBackgroundColor=none;strokeWidth=1;fontFamily=Verdana;fontSize=12;align=center;" vertex="1" parent="qi0_s2SgOBojyVAlAetw-1">
          <mxGeometry x="440" y="100" width="100" height="350" as="geometry" />
        </mxCell>
        <mxCell id="f9JuCDkdHwHQhLdcMdZG-4" value="" style="html=1;points=[];perimeter=orthogonalPerimeter;outlineConnect=0;targetShapes=umlLifeline;portConstraint=eastwest;newEdgeStyle={&quot;edgeStyle&quot;:&quot;elbowEdgeStyle&quot;,&quot;elbow&quot;:&quot;vertical&quot;,&quot;curved&quot;:0,&quot;rounded&quot;:0};" vertex="1" parent="f9JuCDkdHwHQhLdcMdZG-3">
          <mxGeometry x="45" y="50" width="10" height="80" as="geometry" />
        </mxCell>
        <mxCell id="f9JuCDkdHwHQhLdcMdZG-5" value="getMessage()" style="edgeStyle=none;orthogonalLoop=1;jettySize=auto;html=1;rounded=0;verticalAlign=bottom;exitX=1.114;exitY=0.262;exitDx=0;exitDy=0;exitPerimeter=0;" edge="1" parent="qi0_s2SgOBojyVAlAetw-1" source="qi0_s2SgOBojyVAlAetw-7" target="f9JuCDkdHwHQhLdcMdZG-4">
          <mxGeometry x="-0.0016" width="100" relative="1" as="geometry">
            <mxPoint x="480" y="191" as="sourcePoint" />
            <mxPoint x="335" y="191" as="targetPoint" />
            <Array as="points" />
            <mxPoint as="offset" />
          </mxGeometry>
        </mxCell>
        <mxCell id="WOdpNa8q6JbNw8__8Q4p-0" value="" style="edgeStyle=none;orthogonalLoop=1;jettySize=auto;html=1;rounded=0;dashed=1;entryX=1.162;entryY=0.427;entryDx=0;entryDy=0;entryPerimeter=0;" edge="1" parent="qi0_s2SgOBojyVAlAetw-1" source="f9JuCDkdHwHQhLdcMdZG-4" target="qi0_s2SgOBojyVAlAetw-7">
          <mxGeometry width="100" relative="1" as="geometry">
            <mxPoint x="335" y="218" as="sourcePoint" />
            <mxPoint x="350" y="220" as="targetPoint" />
            <Array as="points" />
          </mxGeometry>
        </mxCell>
        <mxCell id="WOdpNa8q6JbNw8__8Q4p-1" value="return message" style="edgeLabel;html=1;align=center;verticalAlign=bottom;resizable=0;points=[];" vertex="1" connectable="0" parent="WOdpNa8q6JbNw8__8Q4p-0">
          <mxGeometry x="-0.1599" y="1" relative="1" as="geometry">
            <mxPoint x="-10" as="offset" />
          </mxGeometry>
        </mxCell>
        <mxCell id="f9JuCDkdHwHQhLdcMdZG-1" value="분석 결과 저장" style="edgeStyle=none;orthogonalLoop=1;jettySize=auto;html=1;rounded=0;verticalAlign=bottom;" edge="1" parent="qi0_s2SgOBojyVAlAetw-1" source="qi0_s2SgOBojyVAlAetw-9">
          <mxGeometry width="100" relative="1" as="geometry">
            <mxPoint x="424" y="272.05000000000007" as="sourcePoint" />
            <mxPoint x="635" y="272.05000000000007" as="targetPoint" />
            <Array as="points" />
          </mxGeometry>
        </mxCell>
        <mxCell id="WOdpNa8q6JbNw8__8Q4p-2" value="추천 문장 요청" style="edgeStyle=none;orthogonalLoop=1;jettySize=auto;html=1;rounded=0;verticalAlign=bottom;entryX=-0.171;entryY=0.094;entryDx=0;entryDy=0;entryPerimeter=0;" edge="1" parent="qi0_s2SgOBojyVAlAetw-1" source="qi0_s2SgOBojyVAlAetw-14" target="WOdpNa8q6JbNw8__8Q4p-3">
          <mxGeometry width="100" relative="1" as="geometry">
            <mxPoint x="180" y="490" as="sourcePoint" />
            <mxPoint x="260" y="140" as="targetPoint" />
            <Array as="points" />
          </mxGeometry>
        </mxCell>
        <mxCell id="WOdpNa8q6JbNw8__8Q4p-5" value="결과 요청" style="edgeStyle=none;orthogonalLoop=1;jettySize=auto;html=1;rounded=0;verticalAlign=bottom;" edge="1" parent="qi0_s2SgOBojyVAlAetw-1">
          <mxGeometry width="100" relative="1" as="geometry">
            <mxPoint x="340" y="345.9966608788568" as="sourcePoint" />
            <mxPoint x="634" y="346" as="targetPoint" />
            <Array as="points" />
          </mxGeometry>
        </mxCell>
        <mxCell id="WOdpNa8q6JbNw8__8Q4p-6" value="결과 반환" style="edgeStyle=none;orthogonalLoop=1;jettySize=auto;html=1;rounded=0;entryX=1;entryY=0.5;entryDx=0;entryDy=0;verticalAlign=bottom;dashed=1;" edge="1" parent="qi0_s2SgOBojyVAlAetw-1">
          <mxGeometry width="100" relative="1" as="geometry">
            <mxPoint x="635" y="373" as="sourcePoint" />
            <mxPoint x="340" y="373" as="targetPoint" />
            <Array as="points" />
          </mxGeometry>
        </mxCell>
        <mxCell id="WOdpNa8q6JbNw8__8Q4p-7" value="결과 제공" style="edgeStyle=none;orthogonalLoop=1;jettySize=auto;html=1;rounded=0;verticalAlign=bottom;dashed=1;" edge="1" parent="qi0_s2SgOBojyVAlAetw-1">
          <mxGeometry width="100" relative="1" as="geometry">
            <mxPoint x="330" y="381" as="sourcePoint" />
            <mxPoint x="185" y="381" as="targetPoint" />
            <Array as="points" />
          </mxGeometry>
        </mxCell>
        <mxCell id="WOdpNa8q6JbNw8__8Q4p-8" value="추천 문장 선택" style="edgeStyle=none;orthogonalLoop=1;jettySize=auto;html=1;rounded=0;verticalAlign=bottom;" edge="1" parent="qi0_s2SgOBojyVAlAetw-1">
          <mxGeometry width="100" relative="1" as="geometry">
            <mxPoint x="185" y="415" as="sourcePoint" />
            <mxPoint x="330" y="415" as="targetPoint" />
            <Array as="points" />
          </mxGeometry>
        </mxCell>
      </root>
    </mxGraphModel>
  </diagram>
  <diagram name="추천 문장 재요청" id="ecvmvpRFobkajOfHqeM3">
    <mxGraphModel dx="751" dy="461" grid="1" gridSize="10" guides="1" tooltips="1" connect="1" arrows="1" fold="1" page="1" pageScale="1" pageWidth="827" pageHeight="1169" math="0" shadow="0">
      <root>
        <mxCell id="4OhSjj3w1QszVq8yyXY6-0" />
        <mxCell id="4OhSjj3w1QszVq8yyXY6-1" parent="4OhSjj3w1QszVq8yyXY6-0" />
        <mxCell id="4OhSjj3w1QszVq8yyXY6-2" value="" style="whiteSpace=wrap;html=1;fillColor=none;" vertex="1" parent="4OhSjj3w1QszVq8yyXY6-1">
          <mxGeometry x="80" y="170" width="620" height="140" as="geometry" />
        </mxCell>
        <mxCell id="4OhSjj3w1QszVq8yyXY6-3" value="평상시" style="html=1;whiteSpace=wrap;" vertex="1" parent="4OhSjj3w1QszVq8yyXY6-1">
          <mxGeometry x="80" y="170" width="60" height="20" as="geometry" />
        </mxCell>
        <mxCell id="4OhSjj3w1QszVq8yyXY6-4" value="" style="whiteSpace=wrap;html=1;fillColor=none;" vertex="1" parent="4OhSjj3w1QszVq8yyXY6-1">
          <mxGeometry x="80" y="310" width="620" height="120" as="geometry" />
        </mxCell>
        <mxCell id="4OhSjj3w1QszVq8yyXY6-5" value="추천 문장&lt;br&gt;요청시" style="html=1;whiteSpace=wrap;" vertex="1" parent="4OhSjj3w1QszVq8yyXY6-1">
          <mxGeometry x="80" y="310" width="60" height="30" as="geometry" />
        </mxCell>
        <mxCell id="4OhSjj3w1QszVq8yyXY6-6" value=":System" style="shape=umlLifeline;perimeter=lifelinePerimeter;whiteSpace=wrap;html=1;container=1;collapsible=0;recursiveResize=0;outlineConnect=0;rounded=1;shadow=0;comic=0;labelBackgroundColor=none;strokeWidth=1;fontFamily=Verdana;fontSize=12;align=center;" vertex="1" parent="4OhSjj3w1QszVq8yyXY6-1">
          <mxGeometry x="280" y="100" width="110" height="350" as="geometry" />
        </mxCell>
        <mxCell id="4OhSjj3w1QszVq8yyXY6-7" value="" style="html=1;points=[];perimeter=orthogonalPerimeter;rounded=0;shadow=0;comic=0;labelBackgroundColor=none;strokeWidth=1;fontFamily=Verdana;fontSize=12;align=center;" vertex="1" parent="4OhSjj3w1QszVq8yyXY6-6">
          <mxGeometry x="50" y="50" width="10" height="150" as="geometry" />
        </mxCell>
        <mxCell id="4OhSjj3w1QszVq8yyXY6-8" value="" style="curved=1;endArrow=classic;html=1;rounded=0;entryX=1.067;entryY=0.133;entryDx=0;entryDy=0;entryPerimeter=0;exitX=1.033;exitY=0.065;exitDx=0;exitDy=0;exitPerimeter=0;" edge="1" parent="4OhSjj3w1QszVq8yyXY6-6" target="4OhSjj3w1QszVq8yyXY6-9">
          <mxGeometry width="50" height="50" relative="1" as="geometry">
            <mxPoint x="60.32999999999993" y="142.02999999999997" as="sourcePoint" />
            <mxPoint x="57.809999999999945" y="161.25" as="targetPoint" />
            <Array as="points">
              <mxPoint x="80" y="141" />
              <mxPoint x="80" y="161" />
            </Array>
          </mxGeometry>
        </mxCell>
        <mxCell id="4OhSjj3w1QszVq8yyXY6-9" value="" style="whiteSpace=wrap;html=1;" vertex="1" parent="4OhSjj3w1QszVq8yyXY6-6">
          <mxGeometry x="55" y="156" width="10" height="30" as="geometry" />
        </mxCell>
        <mxCell id="4OhSjj3w1QszVq8yyXY6-10" value="분석" style="text;html=1;align=center;verticalAlign=middle;resizable=0;points=[];autosize=1;strokeColor=none;fillColor=none;" vertex="1" parent="4OhSjj3w1QszVq8yyXY6-6">
          <mxGeometry x="70" y="125" width="40" height="30" as="geometry" />
        </mxCell>
        <mxCell id="4OhSjj3w1QszVq8yyXY6-11" value="" style="curved=1;endArrow=classic;html=1;rounded=0;exitX=0;exitY=0.75;exitDx=0;exitDy=0;entryX=-0.029;entryY=0.196;entryDx=0;entryDy=0;entryPerimeter=0;" edge="1" parent="4OhSjj3w1QszVq8yyXY6-6" source="4OhSjj3w1QszVq8yyXY6-9" target="4OhSjj3w1QszVq8yyXY6-7">
          <mxGeometry width="50" height="50" relative="1" as="geometry">
            <mxPoint x="70.32999999999993" y="152.02999999999997" as="sourcePoint" />
            <mxPoint x="50" y="134" as="targetPoint" />
            <Array as="points">
              <mxPoint x="30" y="179" />
              <mxPoint x="30" y="79" />
            </Array>
          </mxGeometry>
        </mxCell>
        <mxCell id="4OhSjj3w1QszVq8yyXY6-12" value="" style="whiteSpace=wrap;html=1;" vertex="1" parent="4OhSjj3w1QszVq8yyXY6-6">
          <mxGeometry x="50" y="220" width="10" height="120" as="geometry" />
        </mxCell>
        <mxCell id="4OhSjj3w1QszVq8yyXY6-13" value=":Database" style="shape=umlLifeline;perimeter=lifelinePerimeter;whiteSpace=wrap;html=1;container=1;collapsible=0;recursiveResize=0;outlineConnect=0;rounded=1;shadow=0;comic=0;labelBackgroundColor=none;strokeWidth=1;fontFamily=Verdana;fontSize=12;align=center;" vertex="1" parent="4OhSjj3w1QszVq8yyXY6-1">
          <mxGeometry x="590" y="100" width="100" height="350" as="geometry" />
        </mxCell>
        <mxCell id="4OhSjj3w1QszVq8yyXY6-14" value="" style="html=1;points=[];perimeter=orthogonalPerimeter;rounded=0;shadow=0;comic=0;labelBackgroundColor=none;strokeWidth=1;fontFamily=Verdana;fontSize=12;align=center;" vertex="1" parent="4OhSjj3w1QszVq8yyXY6-13">
          <mxGeometry x="45" y="167" width="10" height="21" as="geometry" />
        </mxCell>
        <mxCell id="4OhSjj3w1QszVq8yyXY6-15" value="" style="whiteSpace=wrap;html=1;" vertex="1" parent="4OhSjj3w1QszVq8yyXY6-13">
          <mxGeometry x="45" y="240" width="10" height="60" as="geometry" />
        </mxCell>
        <mxCell id="4OhSjj3w1QszVq8yyXY6-16" value=":User" style="shape=umlLifeline;perimeter=lifelinePerimeter;whiteSpace=wrap;html=1;container=1;collapsible=0;recursiveResize=0;outlineConnect=0;rounded=1;shadow=0;comic=0;labelBackgroundColor=none;strokeWidth=1;fontFamily=Verdana;fontSize=12;align=center;" vertex="1" parent="4OhSjj3w1QszVq8yyXY6-1">
          <mxGeometry x="130" y="100" width="100" height="350" as="geometry" />
        </mxCell>
        <mxCell id="4OhSjj3w1QszVq8yyXY6-17" value="" style="html=1;points=[];perimeter=orthogonalPerimeter;outlineConnect=0;targetShapes=umlLifeline;portConstraint=eastwest;newEdgeStyle={&quot;edgeStyle&quot;:&quot;elbowEdgeStyle&quot;,&quot;elbow&quot;:&quot;vertical&quot;,&quot;curved&quot;:0,&quot;rounded&quot;:0};" vertex="1" parent="4OhSjj3w1QszVq8yyXY6-16">
          <mxGeometry x="45" y="220" width="10" height="120" as="geometry" />
        </mxCell>
        <mxCell id="VOiNyt5o-x9roY-qW4DZ-2" value="" style="curved=1;endArrow=classic;html=1;rounded=0;" edge="1" parent="4OhSjj3w1QszVq8yyXY6-16">
          <mxGeometry width="50" height="50" relative="1" as="geometry">
            <mxPoint x="45" y="303" as="sourcePoint" />
            <mxPoint x="45" y="229" as="targetPoint" />
            <Array as="points">
              <mxPoint x="20" y="303" />
              <mxPoint x="20" y="229" />
            </Array>
          </mxGeometry>
        </mxCell>
        <mxCell id="4OhSjj3w1QszVq8yyXY6-18" value=":Message" style="shape=umlLifeline;perimeter=lifelinePerimeter;whiteSpace=wrap;html=1;container=1;collapsible=0;recursiveResize=0;outlineConnect=0;rounded=1;shadow=0;comic=0;labelBackgroundColor=none;strokeWidth=1;fontFamily=Verdana;fontSize=12;align=center;" vertex="1" parent="4OhSjj3w1QszVq8yyXY6-1">
          <mxGeometry x="440" y="100" width="100" height="350" as="geometry" />
        </mxCell>
        <mxCell id="4OhSjj3w1QszVq8yyXY6-19" value="" style="html=1;points=[];perimeter=orthogonalPerimeter;outlineConnect=0;targetShapes=umlLifeline;portConstraint=eastwest;newEdgeStyle={&quot;edgeStyle&quot;:&quot;elbowEdgeStyle&quot;,&quot;elbow&quot;:&quot;vertical&quot;,&quot;curved&quot;:0,&quot;rounded&quot;:0};" vertex="1" parent="4OhSjj3w1QszVq8yyXY6-18">
          <mxGeometry x="45" y="50" width="10" height="80" as="geometry" />
        </mxCell>
        <mxCell id="4OhSjj3w1QszVq8yyXY6-20" value="getMessage()" style="edgeStyle=none;orthogonalLoop=1;jettySize=auto;html=1;rounded=0;verticalAlign=bottom;exitX=1.114;exitY=0.262;exitDx=0;exitDy=0;exitPerimeter=0;" edge="1" parent="4OhSjj3w1QszVq8yyXY6-1" source="4OhSjj3w1QszVq8yyXY6-7" target="4OhSjj3w1QszVq8yyXY6-19">
          <mxGeometry x="-0.0016" width="100" relative="1" as="geometry">
            <mxPoint x="480" y="191" as="sourcePoint" />
            <mxPoint x="335" y="191" as="targetPoint" />
            <Array as="points" />
            <mxPoint as="offset" />
          </mxGeometry>
        </mxCell>
        <mxCell id="4OhSjj3w1QszVq8yyXY6-21" value="" style="edgeStyle=none;orthogonalLoop=1;jettySize=auto;html=1;rounded=0;dashed=1;entryX=1.162;entryY=0.427;entryDx=0;entryDy=0;entryPerimeter=0;" edge="1" parent="4OhSjj3w1QszVq8yyXY6-1" source="4OhSjj3w1QszVq8yyXY6-19" target="4OhSjj3w1QszVq8yyXY6-7">
          <mxGeometry width="100" relative="1" as="geometry">
            <mxPoint x="335" y="218" as="sourcePoint" />
            <mxPoint x="350" y="220" as="targetPoint" />
            <Array as="points" />
          </mxGeometry>
        </mxCell>
        <mxCell id="4OhSjj3w1QszVq8yyXY6-22" value="return message" style="edgeLabel;html=1;align=center;verticalAlign=bottom;resizable=0;points=[];" vertex="1" connectable="0" parent="4OhSjj3w1QszVq8yyXY6-21">
          <mxGeometry x="-0.1599" y="1" relative="1" as="geometry">
            <mxPoint x="-10" as="offset" />
          </mxGeometry>
        </mxCell>
        <mxCell id="4OhSjj3w1QszVq8yyXY6-23" value="분석 결과 저장" style="edgeStyle=none;orthogonalLoop=1;jettySize=auto;html=1;rounded=0;verticalAlign=bottom;" edge="1" parent="4OhSjj3w1QszVq8yyXY6-1" source="4OhSjj3w1QszVq8yyXY6-9">
          <mxGeometry width="100" relative="1" as="geometry">
            <mxPoint x="424" y="272.05000000000007" as="sourcePoint" />
            <mxPoint x="635" y="272.05000000000007" as="targetPoint" />
            <Array as="points" />
          </mxGeometry>
        </mxCell>
        <mxCell id="4OhSjj3w1QszVq8yyXY6-24" value="추천 문장 요청" style="edgeStyle=none;orthogonalLoop=1;jettySize=auto;html=1;rounded=0;verticalAlign=bottom;entryX=-0.171;entryY=0.094;entryDx=0;entryDy=0;entryPerimeter=0;" edge="1" parent="4OhSjj3w1QszVq8yyXY6-1">
          <mxGeometry width="100" relative="1" as="geometry">
            <mxPoint x="185" y="341.28" as="sourcePoint" />
            <mxPoint x="328.28999999999996" y="341.28" as="targetPoint" />
            <Array as="points" />
          </mxGeometry>
        </mxCell>
        <mxCell id="4OhSjj3w1QszVq8yyXY6-25" value="결과 요청" style="edgeStyle=none;orthogonalLoop=1;jettySize=auto;html=1;rounded=0;verticalAlign=bottom;" edge="1" parent="4OhSjj3w1QszVq8yyXY6-1">
          <mxGeometry width="100" relative="1" as="geometry">
            <mxPoint x="340" y="355.9966608788568" as="sourcePoint" />
            <mxPoint x="634" y="356" as="targetPoint" />
            <Array as="points" />
          </mxGeometry>
        </mxCell>
        <mxCell id="4OhSjj3w1QszVq8yyXY6-26" value="결과 반환" style="edgeStyle=none;orthogonalLoop=1;jettySize=auto;html=1;rounded=0;entryX=1;entryY=0.5;entryDx=0;entryDy=0;verticalAlign=bottom;dashed=1;" edge="1" parent="4OhSjj3w1QszVq8yyXY6-1">
          <mxGeometry width="100" relative="1" as="geometry">
            <mxPoint x="635" y="383" as="sourcePoint" />
            <mxPoint x="340" y="383" as="targetPoint" />
            <Array as="points" />
          </mxGeometry>
        </mxCell>
        <mxCell id="4OhSjj3w1QszVq8yyXY6-27" value="결과 제공" style="edgeStyle=none;orthogonalLoop=1;jettySize=auto;html=1;rounded=0;verticalAlign=bottom;dashed=1;" edge="1" parent="4OhSjj3w1QszVq8yyXY6-1">
          <mxGeometry width="100" relative="1" as="geometry">
            <mxPoint x="330" y="391" as="sourcePoint" />
            <mxPoint x="185" y="391" as="targetPoint" />
            <Array as="points" />
          </mxGeometry>
        </mxCell>
      </root>
    </mxGraphModel>
  </diagram>
</mxfile>
